# xmcd
#
# Track frame offsets: 
#        150
#        14173
#        26052
#        43621
#        74372
#        87538
#        99337
#        115853
#        128399
#        143829
#        157402
#        171677
#        186958
#        207445
#        220268
#        234845
#        247371
#        261695
#
# Disc length: 3868 seconds
#
# Revision: 1
# Processed by: cddbd v1.5.2PL0 Copyright (c) Steve Scherf et al.
# Submitted via: ExactAudioCopyFreeDBPlugin 1.0
#
DISCID=1d0f1a12
DTITLE=Various Artist - CD 04 Me and You, You and Me
DYEAR=1900
DGENRE=Jazz
TTITLE0=Louis Jordan and Louis Armstrong - You Rascal You
TTITLE1=Ella Fitzgerald and Louis Jordan - Petootie Pie
TTITLE2=Billie Holiday and Lester Young - All of Me
TTITLE3=Dexter Gordon and Wardell Gray - The Chase
TTITLE4=Django Reinhardt and Stephane Grappelli - It Had To Be You
TTITLE5=Sarah Vaughan and Miles Davis - Nice Work If You Can Get It
TTITLE6=Duke Ellington and Django Reinhardt - Honeysuckle Rose
TTITLE7=Fred Astaire and Oscar Peterson - Fast Dances
TTITLE8=Charlie Parker and Dizzy Gillespie - My Melancholy Baby
TTITLE9=King Pleasure and Blossom Dearie - I'm In The Mood For Love
TTITLE10=Louis Armstrong and Sidney Bechet - Perdido Street Blues
TTITLE11=Sy Oliver and Ella Fitzgerald - Don't Cha Go' Way Mad
TTITLE12=Bing Crosby and Duke Ellington - Saint Louis Blues
TTITLE13=Eddie Lang and Joe Venuti - Stringin' the Blues
TTITLE14=Louis Armstrong and Ella Fitzgerald - The Frim Fram Sauce
TTITLE15=Miles Davis and Charlie Parker - Chasing the Bird
TTITLE16=Betty Carter and Lionel Hampton - The Hucklebuck
TTITLE17=Charlie Parker and Chet Baker - Irresistible You
EXTD=
EXTT0=
EXTT1=
EXTT2=
EXTT3=
EXTT4=
EXTT5=
EXTT6=
EXTT7=
EXTT8=
EXTT9=
EXTT10=
EXTT11=
EXTT12=
EXTT13=
EXTT14=
EXTT15=
EXTT16=
EXTT17=
PLAYORDER=
